<svg id="visual" viewBox="0 0 900 600" width="900" height="600" xmlns="http://www.w3.org/2000/svg" xmlns:xlink="http://www.w3.org/1999/xlink" version="1.1"><path d="M0 85L16.7 89C33.3 93 66.7 101 100 100C133.3 99 166.7 89 200 92C233.3 95 266.7 111 300 125C333.3 139 366.7 151 400 151C433.3 151 466.7 139 500 135C533.3 131 566.7 135 600 142C633.3 149 666.7 159 700 151C733.3 143 766.7 117 800 107C833.3 97 866.7 103 883.3 106L900 109L900 0L883.3 0C866.7 0 833.3 0 800 0C766.7 0 733.3 0 700 0C666.7 0 633.3 0 600 0C566.7 0 533.3 0 500 0C466.7 0 433.3 0 400 0C366.7 0 333.3 0 300 0C266.7 0 233.3 0 200 0C166.7 0 133.3 0 100 0C66.7 0 33.3 0 16.7 0L0 0Z" fill="#e2ddff"></path><path d="M0 223L16.7 224C33.3 225 66.7 227 100 225C133.3 223 166.7 217 200 223C233.3 229 266.7 247 300 270C333.3 293 366.7 321 400 328C433.3 335 466.7 321 500 308C533.3 295 566.7 283 600 293C633.3 303 666.7 335 700 333C733.3 331 766.7 295 800 269C833.3 243 866.7 227 883.3 219L900 211L900 107L883.3 104C866.7 101 833.3 95 800 105C766.7 115 733.3 141 700 149C666.7 157 633.3 147 600 140C566.7 133 533.3 129 500 133C466.7 137 433.3 149 400 149C366.7 149 333.3 137 300 123C266.7 109 233.3 93 200 90C166.7 87 133.3 97 100 98C66.7 99 33.3 91 16.7 87L0 83Z" fill="#dbd5ff"></path><path d="M0 319L16.7 325C33.3 331 66.7 343 100 346C133.3 349 166.7 343 200 344C233.3 345 266.7 353 300 362C333.3 371 366.7 381 400 392C433.3 403 466.7 415 500 415C533.3 415 566.7 403 600 406C633.3 409 666.7 427 700 425C733.3 423 766.7 401 800 380C833.3 359 866.7 339 883.3 329L900 319L900 209L883.3 217C866.7 225 833.3 241 800 267C766.7 293 733.3 329 700 331C666.7 333 633.3 301 600 291C566.7 281 533.3 293 500 306C466.7 319 433.3 333 400 326C366.7 319 333.3 291 300 268C266.7 245 233.3 227 200 221C166.7 215 133.3 221 100 223C66.7 225 33.3 223 16.7 222L0 221Z" fill="#d3cdff"></path><path d="M0 403L16.7 404C33.3 405 66.7 407 100 404C133.3 401 166.7 393 200 400C233.3 407 266.7 429 300 438C333.3 447 366.7 443 400 446C433.3 449 466.7 459 500 460C533.3 461 566.7 453 600 457C633.3 461 666.7 477 700 480C733.3 483 766.7 473 800 458C833.3 443 866.7 423 883.3 413L900 403L900 317L883.3 327C866.7 337 833.3 357 800 378C766.7 399 733.3 421 700 423C666.7 425 633.3 407 600 404C566.7 401 533.3 413 500 413C466.7 413 433.3 401 400 390C366.7 379 333.3 369 300 360C266.7 351 233.3 343 200 342C166.7 341 133.3 347 100 344C66.7 341 33.3 329 16.7 323L0 317Z" fill="#c6beff"></path><path d="M0 601L16.7 601C33.3 601 66.7 601 100 601C133.3 601 166.7 601 200 601C233.3 601 266.7 601 300 601C333.3 601 366.7 601 400 601C433.3 601 466.7 601 500 601C533.3 601 566.7 601 600 601C633.3 601 666.7 601 700 601C733.3 601 766.7 601 800 601C833.3 601 866.7 601 883.3 601L900 601L900 401L883.3 411C866.7 421 833.3 441 800 456C766.7 471 733.3 481 700 478C666.7 475 633.3 459 600 455C566.7 451 533.3 459 500 458C466.7 457 433.3 447 400 444C366.7 441 333.3 445 300 436C266.7 427 233.3 405 200 398C166.7 391 133.3 399 100 402C66.7 405 33.3 403 16.7 402L0 401Z" fill="#b9aeff"></path></svg>