<svg width="643" height="406" viewBox="0 0 643 406" fill="none" xmlns="http://www.w3.org/2000/svg">
<rect x="5" y="5" width="633" height="396" rx="18" fill="#EEF1FD" stroke="#CED9FF" stroke-width="10"/>
<path d="M0 23C0 10.2975 10.2975 0 23 0H620C632.703 0 643 10.2975 643 23V56H0V23Z" fill="#CED9FF"/>
<circle cx="600.5" cy="29.5" r="11.5" fill="#879CE5"/>
<circle cx="553.5" cy="29.5" r="11.5" fill="#879CE5"/>
<circle cx="506.5" cy="29.5" r="11.5" fill="#879CE5"/>
<rect x="21" y="13" width="437" height="32" rx="16" fill="#EEF2FF"/>
<path d="M33.2217 26.499C33.7822 25.8109 34.5114 25.4668 35.4092 25.4668C36.9723 25.4668 37.7607 26.3486 37.7744 28.1123V33H36.5098V28.1055C36.5052 27.5723 36.3822 27.1781 36.1406 26.9229C35.9036 26.6676 35.5322 26.54 35.0264 26.54C34.6162 26.54 34.2562 26.6494 33.9463 26.8682C33.6364 27.0869 33.3949 27.374 33.2217 27.7295V33H31.957V22.5H33.2217V26.499ZM41.2438 23.8125V25.6035H42.6246V26.5811H41.2438V31.168C41.2438 31.4642 41.3053 31.6875 41.4284 31.8379C41.5514 31.9837 41.761 32.0566 42.0573 32.0566C42.2031 32.0566 42.4036 32.0293 42.6588 31.9746V33C42.3261 33.0911 42.0026 33.1367 41.6881 33.1367C41.123 33.1367 40.6969 32.9658 40.4098 32.624C40.1227 32.2822 39.9791 31.7969 39.9791 31.168V26.5811H38.6325V25.6035H39.9791V23.8125H41.2438ZM45.6839 23.8125V25.6035H47.0647V26.5811H45.6839V31.168C45.6839 31.4642 45.7454 31.6875 45.8684 31.8379C45.9915 31.9837 46.2011 32.0566 46.4973 32.0566C46.6432 32.0566 46.8437 32.0293 47.0989 31.9746V33C46.7662 33.0911 46.4427 33.1367 46.1282 33.1367C45.5631 33.1367 45.137 32.9658 44.8499 32.624C44.5628 32.2822 44.4192 31.7969 44.4192 31.168V26.5811H43.0725V25.6035H44.4192V23.8125H45.6839ZM54.6562 29.3838C54.6562 30.5094 54.3987 31.4163 53.8837 32.1045C53.3687 32.7926 52.6715 33.1367 51.7919 33.1367C50.8941 33.1367 50.1877 32.8519 49.6728 32.2822V35.8438H48.4081V25.6035H49.5634L49.6249 26.4238C50.1399 25.7858 50.8554 25.4668 51.7714 25.4668C52.6601 25.4668 53.3619 25.8018 53.8769 26.4717C54.3964 27.1416 54.6562 28.0736 54.6562 29.2676V29.3838ZM53.3915 29.2402C53.3915 28.4062 53.2138 27.7477 52.8583 27.2646C52.5029 26.7816 52.0152 26.54 51.3954 26.54C50.6298 26.54 50.0556 26.8796 49.6728 27.5586V31.0928C50.051 31.7673 50.6298 32.1045 51.4091 32.1045C52.0152 32.1045 52.496 31.8652 52.8515 31.3867C53.2115 30.9036 53.3915 30.1882 53.3915 29.2402ZM60.4361 31.0381C60.4361 30.6963 60.3062 30.432 60.0464 30.2451C59.7912 30.0537 59.3423 29.8896 58.6998 29.7529C58.0617 29.6162 57.5536 29.4521 57.1754 29.2607C56.8017 29.0693 56.5237 28.8415 56.3414 28.5771C56.1636 28.3128 56.0748 27.9984 56.0748 27.6338C56.0748 27.0277 56.33 26.515 56.8404 26.0957C57.3554 25.6764 58.0116 25.4668 58.8091 25.4668C59.6477 25.4668 60.3267 25.6833 60.8463 26.1162C61.3703 26.5492 61.6324 27.1029 61.6324 27.7773H60.3609C60.3609 27.431 60.2128 27.1325 59.9166 26.8818C59.6249 26.6312 59.2558 26.5059 58.8091 26.5059C58.3489 26.5059 57.9888 26.6061 57.7291 26.8066C57.4693 27.0072 57.3394 27.2692 57.3394 27.5928C57.3394 27.8981 57.4602 28.1283 57.7017 28.2832C57.9433 28.4382 58.3785 28.5863 59.0074 28.7275C59.6408 28.8688 60.1535 29.0374 60.5455 29.2334C60.9374 29.4294 61.2268 29.6663 61.4136 29.9443C61.605 30.2178 61.7007 30.5527 61.7007 30.9492C61.7007 31.61 61.4364 32.141 60.9078 32.542C60.3791 32.9385 59.6933 33.1367 58.8502 33.1367C58.2577 33.1367 57.7336 33.0319 57.2779 32.8223C56.8222 32.6126 56.4644 32.321 56.2046 31.9473C55.9494 31.569 55.8218 31.1611 55.8218 30.7236H57.0865C57.1093 31.1475 57.2779 31.4847 57.5923 31.7354C57.9114 31.9814 58.3306 32.1045 58.8502 32.1045C59.3287 32.1045 59.7115 32.0088 59.9986 31.8174C60.2903 31.6214 60.4361 31.3617 60.4361 31.0381ZM63.1672 32.3369C63.1672 32.1182 63.231 31.9359 63.3586 31.79C63.4908 31.6442 63.6867 31.5713 63.9465 31.5713C64.2062 31.5713 64.4022 31.6442 64.5344 31.79C64.6711 31.9359 64.7395 32.1182 64.7395 32.3369C64.7395 32.5465 64.6711 32.722 64.5344 32.8633C64.4022 33.0046 64.2062 33.0752 63.9465 33.0752C63.6867 33.0752 63.4908 33.0046 63.3586 32.8633C63.231 32.722 63.1672 32.5465 63.1672 32.3369ZM63.174 26.3008C63.174 26.082 63.2378 25.8997 63.3654 25.7539C63.4976 25.6081 63.6936 25.5352 63.9533 25.5352C64.2131 25.5352 64.409 25.6081 64.5412 25.7539C64.6779 25.8997 64.7463 26.082 64.7463 26.3008C64.7463 26.5104 64.6779 26.6859 64.5412 26.8271C64.409 26.9684 64.2131 27.0391 63.9533 27.0391C63.6936 27.0391 63.4976 26.9684 63.3654 26.8271C63.2378 26.6859 63.174 26.5104 63.174 26.3008ZM66.7118 33.8545H65.6248L69.7811 23.0469H70.8612L66.7118 33.8545Z" fill="#DBDBDB"/>
<path d="M72.3413 33.8545H71.2544L75.4106 23.0469H76.4907L72.3413 33.8545Z" fill="#D5D5D5"/>
<path d="M80.6847 32.1045C81.1359 32.1045 81.5301 31.9678 81.8673 31.6943C82.2045 31.4209 82.3914 31.0791 82.4279 30.6689H83.6241C83.6014 31.0928 83.4555 31.4961 83.1866 31.8789C82.9178 32.2617 82.5577 32.5671 82.1066 32.7949C81.6599 33.0228 81.186 33.1367 80.6847 33.1367C79.6775 33.1367 78.8754 32.8018 78.2784 32.1318C77.686 31.4574 77.3898 30.5368 77.3898 29.3701V29.1582C77.3898 28.4382 77.5219 27.7979 77.7863 27.2373C78.0506 26.6768 78.4288 26.2415 78.921 25.9316C79.4178 25.6217 80.0034 25.4668 80.6779 25.4668C81.5073 25.4668 82.1954 25.7152 82.7423 26.2119C83.2937 26.7087 83.5877 27.3535 83.6241 28.1465H82.4279C82.3914 27.668 82.2091 27.276 81.881 26.9707C81.5574 26.6608 81.1564 26.5059 80.6779 26.5059C80.0353 26.5059 79.5363 26.7383 79.1808 27.2031C78.8299 27.6634 78.6544 28.3311 78.6544 29.2061V29.4453C78.6544 30.2975 78.8299 30.9538 79.1808 31.4141C79.5317 31.8743 80.033 32.1045 80.6847 32.1045ZM84.5711 29.2334C84.5711 28.5088 84.7123 27.8571 84.9949 27.2783C85.282 26.6995 85.6785 26.2529 86.1843 25.9385C86.6948 25.624 87.2758 25.4668 87.9275 25.4668C88.9347 25.4668 89.7481 25.8154 90.3679 26.5127C90.9923 27.21 91.3045 28.1374 91.3045 29.2949V29.3838C91.3045 30.1038 91.1655 30.751 90.8875 31.3252C90.614 31.8949 90.2198 32.3392 89.7048 32.6582C89.1944 32.9772 88.6065 33.1367 87.9412 33.1367C86.9386 33.1367 86.1251 32.7881 85.5007 32.0908C84.881 31.3936 84.5711 30.4707 84.5711 29.3223V29.2334ZM85.8425 29.3838C85.8425 30.2041 86.0317 30.8626 86.4099 31.3594C86.7927 31.8561 87.3032 32.1045 87.9412 32.1045C88.5838 32.1045 89.0942 31.8538 89.4724 31.3525C89.8507 30.8467 90.0398 30.1403 90.0398 29.2334C90.0398 28.4222 89.8461 27.766 89.4588 27.2646C89.0759 26.7588 88.5655 26.5059 87.9275 26.5059C87.3032 26.5059 86.7996 26.7542 86.4168 27.251C86.0339 27.7477 85.8425 28.4587 85.8425 29.3838ZM92.4428 29.2402C92.4428 28.1055 92.7117 27.194 93.2494 26.5059C93.7872 25.8132 94.4913 25.4668 95.3617 25.4668C96.2276 25.4668 96.9135 25.763 97.4193 26.3555V22.5H98.684V33H97.5219L97.4604 32.207C96.9545 32.8268 96.2504 33.1367 95.348 33.1367C94.4913 33.1367 93.7917 32.7858 93.2494 32.084C92.7117 31.3822 92.4428 30.4661 92.4428 29.3359V29.2402ZM93.7074 29.3838C93.7074 30.2223 93.8806 30.8786 94.227 31.3525C94.5733 31.8265 95.0518 32.0635 95.6625 32.0635C96.4646 32.0635 97.0502 31.7035 97.4193 30.9834V27.5859C97.0411 26.8887 96.46 26.54 95.6762 26.54C95.0564 26.54 94.5733 26.7793 94.227 27.2578C93.8806 27.7363 93.7074 28.445 93.7074 29.3838ZM103.582 33.1367C102.579 33.1367 101.764 32.8086 101.135 32.1523C100.506 31.4915 100.191 30.6097 100.191 29.5068V29.2744C100.191 28.5407 100.33 27.8867 100.608 27.3125C100.891 26.7337 101.283 26.2826 101.784 25.959C102.29 25.6309 102.837 25.4668 103.425 25.4668C104.386 25.4668 105.134 25.7835 105.667 26.417C106.2 27.0505 106.467 27.9574 106.467 29.1377V29.6641H101.456C101.474 30.3932 101.686 30.9834 102.092 31.4346C102.502 31.8812 103.022 32.1045 103.65 32.1045C104.097 32.1045 104.475 32.0133 104.785 31.8311C105.095 31.6488 105.366 31.4072 105.599 31.1064L106.371 31.708C105.751 32.6605 104.822 33.1367 103.582 33.1367ZM103.425 26.5059C102.914 26.5059 102.486 26.6927 102.14 27.0664C101.793 27.4355 101.579 27.9551 101.497 28.625H105.202V28.5293C105.166 27.8867 104.993 27.39 104.683 27.0391C104.373 26.6836 103.953 26.5059 103.425 26.5059ZM112.103 31.0381C112.103 30.6963 111.973 30.432 111.714 30.2451C111.458 30.0537 111.009 29.8896 110.367 29.7529C109.729 29.6162 109.221 29.4521 108.842 29.2607C108.469 29.0693 108.191 28.8415 108.008 28.5771C107.831 28.3128 107.742 27.9984 107.742 27.6338C107.742 27.0277 107.997 26.515 108.507 26.0957C109.022 25.6764 109.679 25.4668 110.476 25.4668C111.315 25.4668 111.994 25.6833 112.513 26.1162C113.037 26.5492 113.299 27.1029 113.299 27.7773H112.028C112.028 27.431 111.88 27.1325 111.584 26.8818C111.292 26.6312 110.923 26.5059 110.476 26.5059C110.016 26.5059 109.656 26.6061 109.396 26.8066C109.136 27.0072 109.007 27.2692 109.007 27.5928C109.007 27.8981 109.127 28.1283 109.369 28.2832C109.61 28.4382 110.046 28.5863 110.674 28.7275C111.308 28.8688 111.821 29.0374 112.213 29.2334C112.605 29.4294 112.894 29.6663 113.081 29.9443C113.272 30.2178 113.368 30.5527 113.368 30.9492C113.368 31.61 113.104 32.141 112.575 32.542C112.046 32.9385 111.36 33.1367 110.517 33.1367C109.925 33.1367 109.401 33.0319 108.945 32.8223C108.489 32.6126 108.132 32.321 107.872 31.9473C107.617 31.569 107.489 31.1611 107.489 30.7236H108.754C108.776 31.1475 108.945 31.4847 109.259 31.7354C109.578 31.9814 109.998 32.1045 110.517 32.1045C110.996 32.1045 111.379 32.0088 111.666 31.8174C111.957 31.6214 112.103 31.3617 112.103 31.0381ZM121.123 29.3838C121.123 30.5094 120.866 31.4163 120.351 32.1045C119.836 32.7926 119.139 33.1367 118.259 33.1367C117.361 33.1367 116.655 32.8519 116.14 32.2822V35.8438H114.875V25.6035H116.031L116.092 26.4238C116.607 25.7858 117.323 25.4668 118.239 25.4668C119.127 25.4668 119.829 25.8018 120.344 26.4717C120.864 27.1416 121.123 28.0736 121.123 29.2676V29.3838ZM119.859 29.2402C119.859 28.4062 119.681 27.7477 119.326 27.2646C118.97 26.7816 118.482 26.54 117.863 26.54C117.097 26.54 116.523 26.8796 116.14 27.5586V31.0928C116.518 31.7673 117.097 32.1045 117.876 32.1045C118.482 32.1045 118.963 31.8652 119.319 31.3867C119.679 30.9036 119.859 30.1882 119.859 29.2402ZM123.861 26.499C124.422 25.8109 125.151 25.4668 126.049 25.4668C127.612 25.4668 128.4 26.3486 128.414 28.1123V33H127.149V28.1055C127.145 27.5723 127.022 27.1781 126.78 26.9229C126.543 26.6676 126.172 26.54 125.666 26.54C125.256 26.54 124.896 26.6494 124.586 26.8682C124.276 27.0869 124.034 27.374 123.861 27.7295V33H122.597V22.5H123.861V26.499ZM133.237 33.1367C132.234 33.1367 131.419 32.8086 130.79 32.1523C130.161 31.4915 129.846 30.6097 129.846 29.5068V29.2744C129.846 28.5407 129.985 27.8867 130.263 27.3125C130.546 26.7337 130.938 26.2826 131.439 25.959C131.945 25.6309 132.492 25.4668 133.08 25.4668C134.041 25.4668 134.789 25.7835 135.322 26.417C135.855 27.0505 136.122 27.9574 136.122 29.1377V29.6641H131.111C131.129 30.3932 131.341 30.9834 131.747 31.4346C132.157 31.8812 132.676 32.1045 133.305 32.1045C133.752 32.1045 134.13 32.0133 134.44 31.8311C134.75 31.6488 135.021 31.4072 135.254 31.1064L136.026 31.708C135.406 32.6605 134.476 33.1367 133.237 33.1367ZM133.08 26.5059C132.569 26.5059 132.141 26.6927 131.795 27.0664C131.448 27.4355 131.234 27.9551 131.152 28.625H134.857V28.5293C134.821 27.8867 134.647 27.39 134.338 27.0391C134.028 26.6836 133.608 26.5059 133.08 26.5059ZM141.027 26.7383C140.835 26.7064 140.628 26.6904 140.405 26.6904C139.575 26.6904 139.012 27.0436 138.716 27.75V33H137.451V25.6035H138.682L138.702 26.458C139.117 25.7972 139.705 25.4668 140.466 25.4668C140.712 25.4668 140.899 25.4987 141.027 25.5625V26.7383ZM144.988 33.1367C143.986 33.1367 143.17 32.8086 142.541 32.1523C141.912 31.4915 141.598 30.6097 141.598 29.5068V29.2744C141.598 28.5407 141.737 27.8867 142.015 27.3125C142.297 26.7337 142.689 26.2826 143.19 25.959C143.696 25.6309 144.243 25.4668 144.831 25.4668C145.793 25.4668 146.54 25.7835 147.073 26.417C147.606 27.0505 147.873 27.9574 147.873 29.1377V29.6641H142.862C142.88 30.3932 143.092 30.9834 143.498 31.4346C143.908 31.8812 144.428 32.1045 145.057 32.1045C145.503 32.1045 145.881 32.0133 146.191 31.8311C146.501 31.6488 146.772 31.4072 147.005 31.1064L147.777 31.708C147.157 32.6605 146.228 33.1367 144.988 33.1367ZM144.831 26.5059C144.321 26.5059 143.892 26.6927 143.546 27.0664C143.199 27.4355 142.985 27.9551 142.903 28.625H146.608V28.5293C146.572 27.8867 146.399 27.39 146.089 27.0391C145.779 26.6836 145.36 26.5059 144.831 26.5059ZM149.23 32.3369C149.23 32.1182 149.294 31.9359 149.421 31.79C149.554 31.6442 149.75 31.5713 150.009 31.5713C150.269 31.5713 150.465 31.6442 150.597 31.79C150.734 31.9359 150.802 32.1182 150.802 32.3369C150.802 32.5465 150.734 32.722 150.597 32.8633C150.465 33.0046 150.269 33.0752 150.009 33.0752C149.75 33.0752 149.554 33.0046 149.421 32.8633C149.294 32.722 149.23 32.5465 149.23 32.3369ZM152.419 29.2334C152.419 28.5088 152.56 27.8571 152.843 27.2783C153.13 26.6995 153.527 26.2529 154.032 25.9385C154.543 25.624 155.124 25.4668 155.776 25.4668C156.783 25.4668 157.596 25.8154 158.216 26.5127C158.84 27.21 159.152 28.1374 159.152 29.2949V29.3838C159.152 30.1038 159.013 30.751 158.736 31.3252C158.462 31.8949 158.068 32.3392 157.553 32.6582C157.042 32.9772 156.455 33.1367 155.789 33.1367C154.787 33.1367 153.973 32.7881 153.349 32.0908C152.729 31.3936 152.419 30.4707 152.419 29.3223V29.2334ZM153.691 29.3838C153.691 30.2041 153.88 30.8626 154.258 31.3594C154.641 31.8561 155.151 32.1045 155.789 32.1045C156.432 32.1045 156.942 31.8538 157.32 31.3525C157.699 30.8467 157.888 30.1403 157.888 29.2334C157.888 28.4222 157.694 27.766 157.307 27.2646C156.924 26.7588 156.414 26.5059 155.776 26.5059C155.151 26.5059 154.648 26.7542 154.265 27.251C153.882 27.7477 153.691 28.4587 153.691 29.3838ZM164.174 26.7383C163.982 26.7064 163.775 26.6904 163.552 26.6904C162.722 26.6904 162.159 27.0436 161.863 27.75V33H160.598V25.6035H161.829L161.849 26.458C162.264 25.7972 162.852 25.4668 163.613 25.4668C163.859 25.4668 164.046 25.4987 164.174 25.5625V26.7383ZM164.765 29.2402C164.765 28.0872 165.032 27.1712 165.565 26.4922C166.098 25.8086 166.804 25.4668 167.684 25.4668C168.586 25.4668 169.29 25.7858 169.796 26.4238L169.858 25.6035H171.013V32.8223C171.013 33.7793 170.728 34.5335 170.159 35.085C169.594 35.6364 168.832 35.9121 167.875 35.9121C167.342 35.9121 166.82 35.7982 166.31 35.5703C165.8 35.3424 165.41 35.0303 165.141 34.6338L165.797 33.875C166.34 34.5449 167.003 34.8799 167.787 34.8799C168.402 34.8799 168.88 34.7067 169.222 34.3604C169.568 34.014 169.742 33.5264 169.742 32.8975V32.2617C169.236 32.8451 168.545 33.1367 167.67 33.1367C166.804 33.1367 166.103 32.7881 165.565 32.0908C165.032 31.3936 164.765 30.4434 164.765 29.2402ZM166.037 29.3838C166.037 30.2178 166.207 30.874 166.549 31.3525C166.891 31.8265 167.37 32.0635 167.985 32.0635C168.782 32.0635 169.368 31.7012 169.742 30.9766V27.5996C169.354 26.8932 168.773 26.54 167.998 26.54C167.383 26.54 166.902 26.7793 166.556 27.2578C166.21 27.7363 166.037 28.445 166.037 29.3838Z" fill="#879CE5"/>
</svg>
